{
	"materials":[{
		"pbrMetallicRoughness":{
			"baseColorFactor":[0.8,
			0.8,
			0.8,
			1.0],
			"metallicFactor":1.0,
			"roughnessFactor":0.3
		},
		"emissiveFactor":[0.0,
		0.0,
		0.0],
		"alphaMode":"OPAQUE",
		"doubleSided":false,
		"name":"PBR"
	}],
	"asset":{
		"version":"2.0",
		"generator":"Created using the official Cinema 4D glTF Exporter 1.000x284978"
	},
	"scenes":[{
		"nodes":[0,
		1]
	}],
	"nodes":[{
		"name":"Polygon Reduction",
		"translation":[2.9844753742218019,
		2.1817069053649904,
		-0.7950819730758667],
		"rotation":[0.0,
		0.0,
		0.0,
		-1.0],
		"scale":[1.0,
		1.0,
		1.0],
		"mesh":0
	},
	{
		"name":"Camera",
		"translation":[10.933547019958496,
		18.23830223083496,
		56.95581817626953],
		"rotation":[0.039138197898864749,
		-0.10205104947090149,
		-0.004018200095742941,
		-0.9940008521080017],
		"scale":[1.0,
		1.0,
		1.0],
		"camera":0
	}],
	"meshes":[{
		"name":"Polygon Reduction",
		"primitives":[{
			"attributes":{
				"POSITION":1,
				"NORMAL":2,
				"TEXCOORD_0":3
			},
			"indices":0,
			"material":0
		}]
	}],
	"cameras":[{
		"type":"perspective",
		"perspective":{
			"znear":0.009999999776482582,
			"zfar":10000000000.0,
			"aspectRatio":1.7777777910232545,
			"yfov":0.5483348965644836
		}
	}],
	"accessors":[{
		"bufferView":0,
		"min":[0],
		"type":"SCALAR",
		"componentType":5123,
		"count":33693,
		"byteOffset":0,
		"max":[10049]
	},
	{
		"bufferView":1,
		"min":[-8.155223846435547,
		0.86338871717453,
		-10.418691635131836],
		"type":"VEC3",
		"componentType":5126,
		"count":10050,
		"byteOffset":0,
		"max":[14.251166343688965,
		27.760498046875,
		6.382174491882324]
	},
	{
		"bufferView":1,
		"min":[-0.9999375343322754,
		-0.9998125433921814,
		-0.9999375343322754],
		"type":"VEC3",
		"componentType":5126,
		"count":10050,
		"byteOffset":12,
		"max":[0.9999063014984131,
		0.9999375343322754,
		0.9999375343322754]
	},
	{
		"bufferView":1,
		"min":[0.002848000032827258,
		0.0078119998797774319],
		"type":"VEC2",
		"componentType":5126,
		"count":10050,
		"byteOffset":24,
		"max":[0.9971519708633423,
		0.9921870231628418]
	}],
	"bufferViews":[{
		"buffer":0,
		"byteOffset":0,
		"byteLength":67386,
		"target":34963
	},
	{
		"buffer":0,
		"byteOffset":67388,
		"byteLength":321600,
		"target":34962,
		"byteStride":32
	}],
	"buffers":[{
		"uri":"data:application/octet-stream;base64,",
		"byteLength":388988
	}]
}